<?xml version="1.0" encoding="iso-8859-1"?>
<!-- Generator: Adobe Illustrator 17.1.0, SVG Export Plug-In . SVG Version: 6.00 Build 0)  -->
<!DOCTYPE svg PUBLIC "-//W3C//DTD SVG 1.1//EN" "http://www.w3.org/Graphics/SVG/1.1/DTD/svg11.dtd">
<svg version="1.1" id="Capa_1" xmlns="http://www.w3.org/2000/svg" xmlns:xlink="http://www.w3.org/1999/xlink" x="0px" y="0px"
	 viewBox="0 0 212.579 212.579" style="enable-background:new 0 0 212.579 212.579;" xml:space="preserve">
<path d="M211.114,68.386L148.452,5.724c-1.953-1.952-5.119-1.953-7.071,0L35.314,111.79c-0.938,0.938-1.464,2.209-1.464,3.535
	c0,1.074,0.36,2.102,0.989,2.955l-32.27,32.269C0.912,152.206,0,154.408,0,156.75c0,2.343,0.912,4.545,2.568,6.2l36.777,36.777
	c5.541,5.541,12.907,8.592,20.742,8.592c7.835,0,15.201-3.051,20.742-8.592l17.728-17.728c0.854,0.629,1.882,0.989,2.955,0.989
	c1.326,0,2.598-0.526,3.536-1.465L211.114,75.457c0.938-0.938,1.464-2.209,1.464-3.535S212.052,69.324,211.114,68.386z
	 M73.758,192.657c-3.651,3.651-8.507,5.662-13.67,5.662c-5.165,0-10.02-2.011-13.671-5.662L10.511,156.75l31.336-31.336
	l49.577,49.577L73.758,192.657z"/>
<g>
</g>
<g>
</g>
<g>
</g>
<g>
</g>
<g>
</g>
<g>
</g>
<g>
</g>
<g>
</g>
<g>
</g>
<g>
</g>
<g>
</g>
<g>
</g>
<g>
</g>
<g>
</g>
<g>
</g>
</svg>
