<?xml version="1.0" encoding="utf-8"?>
<!-- Svg Vector Icons : http://www.onlinewebfonts.com/icon -->
<!DOCTYPE svg PUBLIC "-//W3C//DTD SVG 1.1//EN" "http://www.w3.org/Graphics/SVG/1.1/DTD/svg11.dtd">
<svg version="1.1" xmlns="http://www.w3.org/2000/svg" xmlns:xlink="http://www.w3.org/1999/xlink" x="0px" y="0px" viewBox="0 0 1000 1000" enable-background="new 0 0 1000 1000" xml:space="preserve">
<metadata> Svg Vector Icons : http://www.onlinewebfonts.com/icon </metadata>
<g><g transform="translate(0.000000,511.000000) scale(0.100000,-0.100000)"><path d="M3806.7,4858l-152-152l843.8-843.8l841.3-841.3l-362.3-2.5c-1976.5-15.2-3646.4-1495-3871.9-3433.5c-35.5-314.2-17.7-828.6,40.5-1150.4c91.2-514.4,362.4-1152.9,679.1-1601.5c210.3-296.5,658.8-742.5,945.2-937.6c1320.2-899.6,3000.2-914.8,4355.9-38C7992.9-3585.3,8618.8-2668,8821.5-1667c32.9,167.2,88.7,610.7,91.2,742.4c0,22.8-58.3,30.4-212.9,30.4h-210.3l-17.8-93.8c-7.6-53.2-15.2-136.8-15.2-187.5c0-167.3-76-537.2-164.7-803.3c-415.6-1241.7-1454.5-2138.7-2721.5-2349c-316.8-53.2-970.5-40.5-1269.5,25.3C2884.4-3990.7,1853-2961.9,1561.6-1570.8c-65.9,306.6-76,876.8-25.3,1196.1c91.2,570.1,357.3,1188.4,704.5,1642c375,491.6,970.5,924.9,1568.5,1140.3C4197,2547,4475.7,2590,4985,2590c283.8,0,486.5-12.7,514.4-27.9c40.6-22.8-68.4-141.9-891.9-947.7l-942.6-922.4l152-152l152-152.1l552.4,537.2c304.1,293.9,826.1,808.3,1160.5,1142.8l608.2,610.7L5124.4,3844.4L3958.8,5010L3806.7,4858z"/></g></g>
</svg>