<?xml version="1.0" encoding="utf-8"?>
<!-- Svg Vector Icons : http://www.onlinewebfonts.com/icon -->
<!DOCTYPE svg PUBLIC "-//W3C//DTD SVG 1.1//EN" "http://www.w3.org/Graphics/SVG/1.1/DTD/svg11.dtd">
<svg version="1.1" xmlns="http://www.w3.org/2000/svg" xmlns:xlink="http://www.w3.org/1999/xlink" x="0px" y="0px" viewBox="0 0 1000 1000" enable-background="new 0 0 1000 1000" xml:space="preserve">
<metadata> Svg Vector Icons : http://www.onlinewebfonts.com/icon </metadata>
<g><g transform="translate(0.000000,511.000000) scale(0.100000,-0.100000)"><path d="M4869.5,3843.9l-1153.3-1166l912.5-912.5C5128,1263.5,5650.2,748.9,5787.1,622.1l248.4-230.7l149.6,147l149.5,147l-937.9,925.2c-760.4,750.3-930.3,930.3-897.3,948c22.8,12.7,185,30.4,365,38c1784.5,78.6,3275-1140.7,3594.4-2945.5c53.2-299.1,50.7-841.6-2.5-1150.8C8266.2-2569.2,7591.9-3474.1,6618.5-3971c-294-149.5-618.5-268.7-915.1-332.1c-299.1-65.9-953.1-78.6-1270-27.9c-1117.9,185-2060.8,902.4-2555.1,1944.2c-200.2,420.8-306.7,818.8-344.7,1285.2l-17.7,207.9H1303c-245.9,0-225.6,38-187.6-357.4c68.4-664.1,291.5-1280.1,666.7-1835.2c202.8-296.6,694.6-790.9,993.7-993.7C4626.2-5332.2,7019.1-4888.6,8251-3061c157.2,233.2,398,732.5,479.1,993.7c141.9,458.8,177.4,694.5,177.4,1211.7c0,519.6-35.5,763-174.9,1193.9C8395.5,1372.4,7594.4,2247,6578,2685.5c-537.4,230.7-996.2,329.5-1551.3,334.6l-359.9,2.5l839,844.1l841.5,844.1l-149.5,149.6c-83.6,83.6-157.2,152.1-164.8,149.5C6025.4,5009.9,5503.2,4482.7,4869.5,3843.9z"/></g></g>
</svg>